HIERARCHY
ROOT Hips
{
  OFFSET 5.80788e-005 67.184 3.4734
  CHANNELS 6 Xposition Yposition Zposition Zrotation Xrotation Yrotation
  JOINT Chest
  {
    OFFSET 0 8.7983 -4.7612
    CHANNELS 3 Zrotation Xrotation Yrotation
    JOINT Chest2
    {
      OFFSET 0 8.0291 0.4195
      CHANNELS 3 Zrotation Xrotation Yrotation
      JOINT Chest3
      {
        OFFSET 0 9.9351 -2.2114
        CHANNELS 3 Zrotation Xrotation Yrotation
        JOINT Neck
        {
          OFFSET 0 22.3885 -0.4656
          CHANNELS 3 Zrotation Xrotation Yrotation
          JOINT Head
          {
            OFFSET -0.0001 12.643 3.4389
            CHANNELS 3 Zrotation Xrotation Yrotation
            End Site
            {
              OFFSET 0.0001 17.6655 0.5274
            }
          }
        }
        JOINT LeftCollar
        {
          OFFSET 2.2603 21.606 7.4023
          CHANNELS 3 Zrotation Xrotation Yrotation
          JOINT LeftShoulder
          {
            OFFSET 13.5163 -1.1332 -5.0146
            CHANNELS 3 Zrotation Xrotation Yrotation
            JOINT LeftElbow
            {
              OFFSET -0.0995 -28.05 -0.2431
              CHANNELS 3 Zrotation Xrotation Yrotation
              JOINT LeftWrist
              {
                OFFSET 0.0679 -23.3996 -0.1402
                CHANNELS 3 Zrotation Xrotation Yrotation
                JOINT LeftFinger1
                {
                  OFFSET 0.7932 -9.069 2.5189
                  CHANNELS 3 Zrotation Xrotation Yrotation
                  JOINT LeftFinger11
                  {
                    OFFSET -0.8272 -3.3923 0.5977
                    CHANNELS 3 Zrotation Xrotation Yrotation
                    JOINT LeftFinger12
                    {
                      OFFSET -0.5649 -2.3158 0.4082
                      CHANNELS 3 Zrotation Xrotation Yrotation
                      End Site
                      {
                        OFFSET -0.4919 -1.6479 0.2673
                      }
                    }
                  }
                }
                JOINT LeftFinger2
                {
                  OFFSET 0.9159 -9.2044 0.2193
                  CHANNELS 3 Zrotation Xrotation Yrotation
                  JOINT LeftFinger21
                  {
                    OFFSET 0.0117 -4.1944 -0.0248
                    CHANNELS 3 Zrotation Xrotation Yrotation
                    JOINT LeftFinger22
                    {
                      OFFSET 0.0071 -2.3249 -0.0142
                      CHANNELS 3 Zrotation Xrotation Yrotation
                      End Site
                      {
                        OFFSET -0.1475 -2.0882 0.0028
                      }
                    }
                  }
                }
                JOINT LeftFinger3
                {
                  OFFSET 0.6113 -8.7231 -2.0637
                  CHANNELS 3 Zrotation Xrotation Yrotation
                  JOINT LeftFinger31
                  {
                    OFFSET -0.1927 -3.8059 -0.2383
                    CHANNELS 3 Zrotation Xrotation Yrotation
                    JOINT LeftFinger32
                    {
                      OFFSET -0.1091 -2.1688 -0.1362
                      CHANNELS 3 Zrotation Xrotation Yrotation
                      End Site
                      {
                        OFFSET -0.2358 -1.9176 -0.0906
                      }
                    }
                  }
                }
                JOINT LeftFinger4
                {
                  OFFSET -0.6151 -8.0947 -3.5641
                  CHANNELS 3 Zrotation Xrotation Yrotation
                  JOINT LeftFinger41
                  {
                    OFFSET -0.4882 -2.341 -0.6462
                    CHANNELS 3 Zrotation Xrotation Yrotation
                    JOINT LeftFinger42
                    {
                      OFFSET -0.3575 -1.7167 -0.4742
                      CHANNELS 3 Zrotation Xrotation Yrotation
                      End Site
                      {
                        OFFSET -0.4187 -1.5237 -0.3496
                      }
                    }
                  }
                }
                JOINT LeftFinger0
                {
                  OFFSET -1.42 -1.8761 1.4223
                  CHANNELS 3 Zrotation Xrotation Yrotation
                  JOINT LeftFinger01
                  {
                    OFFSET -1.1471 -3.4929 2.6334
                    CHANNELS 3 Zrotation Xrotation Yrotation
                    JOINT LeftFinger02
                    {
                      OFFSET -0.823 -2.3 1.6571
                      CHANNELS 3 Zrotation Xrotation Yrotation
                      End Site
                      {
                        OFFSET -0.5822 -1.6914 1.1582
                      }
                    }
                  }
                }
              }
            }
          }
        }
        JOINT RightCollar
        {
          OFFSET -2.2603 21.606 7.4023
          CHANNELS 3 Zrotation Xrotation Yrotation
          JOINT RightShoulder
          {
            OFFSET -13.5187 -1.1334 -5.0155
            CHANNELS 3 Zrotation Xrotation Yrotation
            JOINT RightElbow
            {
              OFFSET 0.0994 -28.0499 -0.2431
              CHANNELS 3 Zrotation Xrotation Yrotation
              JOINT RightWrist
              {
                OFFSET -0.0679 -23.3996 -0.1402
                CHANNELS 3 Zrotation Xrotation Yrotation
                JOINT RightFinger1
                {
                  OFFSET -0.7932 -9.0691 2.5189
                  CHANNELS 3 Zrotation Xrotation Yrotation
                  JOINT RightFinger11
                  {
                    OFFSET 0.8272 -3.3923 0.5977
                    CHANNELS 3 Zrotation Xrotation Yrotation
                    JOINT RightFinger12
                    {
                      OFFSET 0.565 -2.3158 0.4082
                      CHANNELS 3 Zrotation Xrotation Yrotation
                      End Site
                      {
                        OFFSET 0.4919 -1.6479 0.2673
                      }
                    }
                  }
                }
                JOINT RightFinger2
                {
                  OFFSET -0.916 -9.2044 0.2193
                  CHANNELS 3 Zrotation Xrotation Yrotation
                  JOINT RightFinger21
                  {
                    OFFSET -0.0117 -4.1944 -0.0248
                    CHANNELS 3 Zrotation Xrotation Yrotation
                    JOINT RightFinger22
                    {
                      OFFSET -0.0071 -2.3249 -0.0142
                      CHANNELS 3 Zrotation Xrotation Yrotation
                      End Site
                      {
                        OFFSET 0.1475 -2.0882 0.0028
                      }
                    }
                  }
                }
                JOINT RightFinger3
                {
                  OFFSET -0.6113 -8.7231 -2.0637
                  CHANNELS 3 Zrotation Xrotation Yrotation
                  JOINT RightFinger31
                  {
                    OFFSET 0.1927 -3.8059 -0.2383
                    CHANNELS 3 Zrotation Xrotation Yrotation
                    JOINT RightFinger32
                    {
                      OFFSET 0.1091 -2.1688 -0.1362
                      CHANNELS 3 Zrotation Xrotation Yrotation
                      End Site
                      {
                        OFFSET 0.2358 -1.9176 -0.0906
                      }
                    }
                  }
                }
                JOINT RightFinger4
                {
                  OFFSET 0.6151 -8.0947 -3.564
                  CHANNELS 3 Zrotation Xrotation Yrotation
                  JOINT RightFinger41
                  {
                    OFFSET 0.4882 -2.341 -0.6462
                    CHANNELS 3 Zrotation Xrotation Yrotation
                    JOINT RightFinger42
                    {
                      OFFSET 0.3574 -1.7166 -0.4742
                      CHANNELS 3 Zrotation Xrotation Yrotation
                      End Site
                      {
                        OFFSET 0.4187 -1.5237 -0.3496
                      }
                    }
                  }
                }
                JOINT RightFinger0
                {
                  OFFSET 1.4199 -1.8761 1.4221
                  CHANNELS 3 Zrotation Xrotation Yrotation
                  JOINT RightFinger01
                  {
                    OFFSET 1.1472 -3.4929 2.6336
                    CHANNELS 3 Zrotation Xrotation Yrotation
                    JOINT RightFinger02
                    {
                      OFFSET 0.8229 -2.3 1.6571
                      CHANNELS 3 Zrotation Xrotation Yrotation
                      End Site
                      {
                        OFFSET 0.5822 -1.6914 1.1582
                      }
                    }
                  }
                }
              }
            }
          }
        }
      }
    }
  }
  JOINT RightHip
  {
    OFFSET -9.412 3.9771 -0.7758
    CHANNELS 3 Zrotation Xrotation Yrotation
    JOINT RightKnee
    {
      OFFSET -0.7531 -40.938 0
      CHANNELS 3 Zrotation Xrotation Yrotation
      JOINT RightAnkle
      {
        OFFSET 0 -40.1986 0
        CHANNELS 3 Zrotation Xrotation Yrotation
        JOINT RightToe
        {
          OFFSET 0 -4.4182 9.239
          CHANNELS 3 Zrotation Xrotation Yrotation
          End Site
          {
            OFFSET 0 0 6.1981
          }
        }
      }
    }
  }
  JOINT LeftHip
  {
    OFFSET 9.4119 3.9773 -0.7758
    CHANNELS 3 Zrotation Xrotation Yrotation
    JOINT LeftKnee
    {
      OFFSET 0.7532 -40.9383 0
      CHANNELS 3 Zrotation Xrotation Yrotation
      JOINT LeftAnkle
      {
        OFFSET 0 -40.1986 0
        CHANNELS 3 Zrotation Xrotation Yrotation
        JOINT LeftToe
        {
          OFFSET 0 -4.4182 9.239
          CHANNELS 3 Zrotation Xrotation Yrotation
          End Site
          {
            OFFSET 0 0 6.1981
          }
        }
      }
    }
  }
}
MOTION
Frames:	4
Frame Time:	0.0333333
5.80788e-005 67.184 3.4734 0 0 -0 0 0 -0 0 0 -0 0 0 -0 0 0 -0 0 0 -0 0 0 -12.5014 88.1196 14.2451 10.6914 -0.00160068 -0.00239207 0.000740045 -8.4365e-005 7.00714e-005 -9.52055e-007 9.93923e-017 -1.98785e-016 -1.59028e-015 9.93923e-017 -5.96354e-016 -1.59028e-015 -9.93923e-017 -5.96354e-016 -1.59028e-015 9.93923e-017 -1.98785e-016 -1.59028e-015 -0.0128176 0.00232552 8.52707e-005 9.93923e-017 5.96354e-016 -0 9.93923e-017 -1.98785e-016 -1.59028e-015 -0.0160551 0.00299681 0.000857156 -2.48481e-016 0 3.18055e-015 9.93923e-017 -1.98785e-016 -1.59028e-015 -0.0125865 0.0031206 0.00282719 0 1.98785e-016 -0 9.93923e-017 -1.98785e-016 -1.59028e-015 9.93923e-017 -5.96354e-016 -1.59028e-015 -9.93923e-017 -5.96354e-016 -1.59028e-015 -0.865644 0.16582 7.03859 -88.0329 10.2057 -10.5567 0.0015593 -0.00248883 -0.000788628 7.87605e-005 4.10553e-005 1.24965e-005 -3.97569e-016 -7.95139e-016 3.18055e-015 -1.98785e-016 -3.97569e-016 3.18055e-015 -1.98785e-016 0 3.18055e-015 -3.97569e-016 -7.95139e-016 3.18055e-015 0.0129473 0.00231697 -8.70038e-005 9.93923e-017 -7.95139e-016 1.59028e-015 -3.97569e-016 -7.95139e-016 3.18055e-015 0.0163314 0.00303369 -0.000872333 3.97569e-016 7.95139e-016 -3.18055e-015 -3.97569e-016 -7.95139e-016 3.18055e-015 0.0145763 0.00367772 -0.00326275 9.93923e-017 -3.97569e-016 -0 -3.97569e-016 -7.95139e-016 3.18055e-015 -1.98785e-016 -3.97569e-016 3.18055e-015 -1.98785e-016 0 3.18055e-015 3.42485 1.36937 -0.0640303 0.000136572 0.69354 0.00145564 -3.42573 -2.06297 -0.0607933 -3.19502e-024 0 -1.48106e-024 -3.42498 1.36123 0.0639712 -6.769e-005 0.712612 -0.0012277 3.42582 -2.07388 0.0612819 2.55305e-023 0 -2.31416e-026 
-0.000230317 -4.11858 -51.5115 180 -84.373 -180 -0.0671548 9.22691 -0.114683 -0.117648 18.454 -0.222667 -0.117649 18.454 -0.222667 4.7944e-007 18.8931 1.18825e-006 -8.50845e-008 9.24005 9.07234e-008 0.93056 0.0689309 -3.51424 -2.4927 34.359 25.875 -42.8293 -74.8961 -71.4646 -6.07201 1.84307 -25.0428 1.6968e-006 2.5036e-006 1.56196e-007 -7.95139e-016 7.95139e-016 7.45443e-016 -7.95139e-016 1.59028e-015 1.35671e-014 1.6968e-006 2.5036e-006 1.56196e-007 -0.0128273 0.00231736 7.61365e-005 -7.95139e-016 7.95139e-016 3.27995e-015 1.6968e-006 2.5036e-006 1.56196e-007 -0.0160821 0.0030019 0.00085989 -0 0 2.93207e-015 1.6968e-006 2.5036e-006 1.56196e-007 -0.0126034 0.00311882 0.00283438 -7.93124e-032 7.95139e-016 5.71506e-015 1.6968e-006 2.5036e-006 1.56196e-007 -7.95139e-016 7.95139e-016 7.45443e-016 -7.95139e-016 1.59028e-015 1.35671e-014 -1.73305 0.360705 -1.95235 -1.09357 35.6787 -18.7749 40.606 -76.4191 68.6369 5.62398 1.30026 25.2113 1.59028e-015 0 -7.65321e-015 3.03456e-032 1.59028e-015 -1.09332e-015 1.59028e-015 -1.59028e-015 2.08724e-015 1.59028e-015 0 -7.65321e-015 0.0129361 0.00232042 -8.43778e-005 2.38542e-015 3.18055e-015 -1.49089e-015 1.59028e-015 0 -7.65321e-015 0.0163193 0.00302295 -0.000870836 7.95139e-016 3.18055e-015 -1.13307e-014 1.59028e-015 0 -7.65321e-015 0.0145505 0.00367064 -0.00325245 -7.95139e-016 4.77083e-015 -3.67752e-015 1.59028e-015 0 -7.65321e-015 3.03456e-032 1.59028e-015 -1.09332e-015 1.59028e-015 -1.59028e-015 2.08724e-015 -17.9454 2.72864 -1.11616 2.09136 8.6559 -0.626168 -9.02334 13.3023 -1.05762 2.04462e-006 5.07135e-007 -1.124e-006 17.9031 2.60246 1.11929 -2.07935 8.75442 0.621957 9.01925 13.282 1.05675 1.75742e-006 -3.00813e-007 -3.22884e-007 
-0.00110203 0.0261459 -47.6512 -179.999 -89.9981 -179.999 -0.065524 9.16944 -0.106318 -0.115823 18.3391 -0.205893 -0.115823 18.3391 -0.205893 6.25001e-007 16.9457 1.634e-006 1.96957e-008 7.52863 1.94772e-007 1.91788 -1.36125 -4.60302 1.94187 33.5104 25.8823 -33.8895 -71.179 -60.7467 -4.99712 1.25208 -22.9334 -7.95139e-016 -1.59028e-015 -8.64713e-015 7.95139e-016 1.59028e-015 -1.20762e-014 1.19271e-015 -1.59028e-015 -1.2424e-014 -7.95139e-016 -1.59028e-015 -8.64713e-015 -0.0128185 0.00231781 8.2635e-005 3.97569e-016 1.43125e-014 -7.10655e-015 -7.95139e-016 -1.59028e-015 -8.64713e-015 -0.016064 0.00299761 0.000855658 1.19271e-015 0 7.35503e-015 -7.95139e-016 -1.59028e-015 -8.64713e-015 -0.0126052 0.00311674 0.00282229 -5.96354e-016 -3.18055e-015 3.77691e-015 -7.95139e-016 -1.59028e-015 -8.64713e-015 7.95139e-016 1.59028e-015 -1.20762e-014 1.19271e-015 -1.59028e-015 -1.2424e-014 -2.61706 -1.1117 -0.890365 -5.40867 34.4163 -18.8949 31.4767 -72.5173 57.7929 4.58742 0.774576 23.0614 7.95139e-016 1.59028e-015 1.68967e-015 -7.95139e-016 1.59028e-015 -4.67144e-015 -7.95139e-016 1.59028e-015 -1.09332e-015 7.95139e-016 1.59028e-015 1.68967e-015 0.0129639 0.00231514 -9.33616e-005 3.97569e-016 0 2.78299e-015 7.95139e-016 1.59028e-015 1.68967e-015 0.01633 0.0030327 -0.000871213 -2.38542e-015 -3.18055e-015 2.98177e-015 7.95139e-016 1.59028e-015 1.68967e-015 0.0145923 0.00367656 -0.00326991 3.97569e-016 -3.18055e-015 -1.98785e-016 7.95139e-016 1.59028e-015 1.68967e-015 -7.95139e-016 1.59028e-015 -4.67144e-015 -7.95139e-016 1.59028e-015 -1.09332e-015 -16.695 2.61703 -1.07208 1.83913 8.61555 -0.576477 -8.70342 12.4168 -0.998909 -1.86785e-006 -1.23887e-005 -6.51615e-006 16.5148 2.0517 1.09928 -1.77167 9.0461 0.56794 8.69625 12.3337 1.00639 7.55042e-007 9.26951e-006 2.17838e-006 
-0.00194211 0.0251923 -47.6513 -180 -89.9981 -180 -0.0676649 9.63097 -0.104676 -0.119781 19.2621 -0.202004 -0.119781 19.2621 -0.202005 8.36367e-007 16.1543 1.86772e-006 9.46449e-008 6.42052 5.58695e-008 2.89128 -2.71952 -5.10883 1.09441 33.4413 26.2438 -35.0425 -71.0913 -61.8526 -4.30946 0.79209 -22.3237 7.95139e-016 -1.59028e-015 8.74653e-015 -1.25448e-007 -1.13377e-006 8.08342e-006 3.12533e-006 -8.81679e-006 -5.27148e-006 7.95139e-016 -1.59028e-015 8.74653e-015 -0.0128106 0.00231391 8.8489e-005 4.50936e-006 2.12638e-006 1.92442e-006 7.95139e-016 -1.59028e-015 8.74653e-015 -0.0160628 0.00298463 0.000866457 7.88632e-006 -3.88287e-006 -3.7975e-006 7.95139e-016 -1.59028e-015 8.74653e-015 -0.0125715 0.0031041 0.00283081 -1.32697e-006 -9.60133e-008 -2.47121e-006 7.95139e-016 -1.59028e-015 8.74653e-015 -1.25448e-007 -1.13377e-006 8.08342e-006 3.12533e-006 -8.81679e-006 -5.27148e-006 -3.48885 -2.50155 -0.408186 -4.61127 34.4316 -19.23 32.6644 -72.4522 58.9397 3.91754 0.342014 22.4234 8.65657e-007 -7.73001e-007 1.15486e-006 1.30113e-006 -7.7845e-007 2.55289e-006 3.6678e-006 -2.28763e-006 -1.34785e-006 8.65657e-007 -7.73001e-007 1.15486e-006 0.0129584 0.00230545 -8.84307e-005 2.44483e-006 7.95029e-006 -3.51391e-007 8.65657e-007 -7.73001e-007 1.15486e-006 0.0163487 0.00302997 -0.000877925 7.95139e-016 2.03913e-008 2.88238e-015 8.65657e-007 -7.73001e-007 1.15486e-006 0.014632 0.00368258 -0.00327789 3.4687e-006 1.35754e-006 6.26059e-006 8.65657e-007 -7.73001e-007 1.15486e-006 1.30113e-006 -7.7845e-007 2.55289e-006 3.6678e-006 -2.28763e-006 -1.34785e-006 -16.6986 2.53116 -1.08645 1.71881 9.19113 -0.564306 -8.69862 12.3194 -1.01223 1.07718e-006 -3.14355e-006 5.9703e-007 16.3859 1.55191 1.13547 -1.59782 9.92502 0.549182 8.68854 12.1838 1.02715 1.77771e-006 8.08495e-007 -1.62277e-007 
